<svg xmlns="http://www.w3.org/2000/svg" viewBox="0 0 720 900" role="img" aria-labelledby="title desc">
  <title id="title">Dr. Priya Surana portrait placeholder</title>
  <desc id="desc">Stylized portrait placeholder for Dr. Priya Surana</desc>
  <defs>
    <linearGradient id="bg" x1="0" y1="0" x2="1" y2="1">
      <stop offset="0%" stop-color="#f8f8f8" />
      <stop offset="100%" stop-color="#dddddd" />
    </linearGradient>
    <linearGradient id="accent" x1="0" y1="0" x2="1" y2="1">
      <stop offset="0%" stop-color="#111111" />
      <stop offset="100%" stop-color="#4b4b4b" />
    </linearGradient>
  </defs>
  <rect width="720" height="900" rx="48" fill="url(#bg)" />
  <circle cx="588" cy="108" r="96" fill="#111111" fill-opacity="0.08" />
  <circle cx="120" cy="770" r="148" fill="#111111" fill-opacity="0.06" />
  <rect x="80" y="88" width="560" height="724" rx="40" fill="#ffffff" fill-opacity="0.72" stroke="#d4d4d8" />
  <circle cx="360" cy="290" r="122" fill="#111111" fill-opacity="0.08" />
  <circle cx="360" cy="260" r="84" fill="#111111" fill-opacity="0.18" />
  <path d="M220 518c0-86 63-156 140-156s140 70 140 156v64H220v-64z" fill="#111111" fill-opacity="0.14" />
  <path d="M248 514c0-67 50-122 112-122s112 55 112 122v22H248v-22z" fill="url(#accent)" />
  <rect x="194" y="602" width="332" height="26" rx="13" fill="#111111" fill-opacity="0.12" />
  <rect x="224" y="642" width="272" height="18" rx="9" fill="#111111" fill-opacity="0.08" />
  <rect x="236" y="684" width="248" height="18" rx="9" fill="#111111" fill-opacity="0.08" />
  <text x="360" y="784" text-anchor="middle" fill="#111111" font-family="Inter, Arial, sans-serif" font-size="38" font-weight="700" letter-spacing="2">PRIYA SURANA</text>
</svg>
